<svg width="970" height="155" xmlns="http://www.w3.org/2000/svg">

 <g>
  <title>Layer 1</title>
  <g>
   <path style="--darkreader-inline-fill: var(--darkreader-background-5584ac, #436888);" transform="translate(923, 43)" fill="#5584AC" d="m-50.17214,-37.89857c11.49505,-0.12716 22.98992,-0.22465 34.48551,-0.2843c5.33798,-0.02863 10.67547,-0.06746 16.01318,-0.12965c5.1517,-0.05963 10.30293,-0.09244 15.45495,-0.10666c1.96505,-0.01013 3.93007,-0.02993 5.89491,-0.05955c2.75374,-0.03987 5.50558,-0.04531 8.25956,-0.04278c1.2172,-0.02959 1.2172,-0.02959 2.45899,-0.05978c4.27777,0.04271 6.18292,0.57463 9.61686,3.20825c2.19408,2.96155 2.19408,2.96155 2.18551,7.07258c-1.002,4.99712 -2.54079,9.81609 -4.24393,14.61368c-0.49547,1.4001 -0.49547,1.4001 -1.00097,2.82848c-2.81383,7.69135 -6.0752,15.141 -9.56169,22.54934c-0.4808,1.0349 -0.9616,2.0698 -1.45698,3.13606c-3.92491,8.1174 -8.97109,18.29809 -17.74785,21.89881c-3.6352,0.75448 -3.6352,0.75448 -6.58451,1.09742c0.8601,0.47533 1.7202,0.95064 2.60637,1.44036c2.88072,1.85189 2.88072,1.85189 5.07556,5.14415c3.79245,19.24166 -10.8868,44.31352 -18.65612,61.45546c-1.09742,1.09742 -1.09742,1.09742 -4.84863,1.22201c-1.66606,-0.00018 -3.33212,-0.00643 -4.99814,-0.01742c-0.87535,-0.00156 -1.75069,-0.00311 -2.65257,-0.00471c-2.80677,-0.00617 -5.61346,-0.01994 -8.42021,-0.03388c-1.89834,-0.0055 -3.79666,-0.01051 -5.695,-0.015c-4.66336,-0.01213 -9.32663,-0.03109 -13.98995,-0.05359c2.28083,-7.22267 4.98488,-14.19054 7.93486,-21.1639c0.43379,-1.03343 0.86759,-2.06687 1.31452,-3.13162c1.37175,-3.26579 2.7485,-6.52945 4.12542,-9.79306c0.937,-2.22828 1.87367,-4.4567 2.81,-6.68526c2.28259,-5.43252 4.57195,-10.86213 6.86101,-16.29195c-8.69156,-0.36215 -17.38312,-0.7243 -26.33806,-1.09742c-1.08644,3.25933 -2.17289,6.51867 -3.29226,9.87677c-0.69789,1.82179 -1.41644,3.63603 -2.16965,5.43566c-0.39169,0.94047 -0.78338,1.88093 -1.18694,2.84991c-0.41165,0.97778 -0.82331,1.95557 -1.24743,2.96298c-0.43119,1.03083 -0.86238,2.06167 -1.30664,3.12374c-0.90394,2.15868 -1.80965,4.31662 -2.71706,6.47386c-1.39426,3.31616 -2.78168,6.63513 -4.16837,9.95447c-0.88125,2.10212 -1.76288,4.20408 -2.64494,6.30587c-0.4161,0.99556 -0.83218,1.99111 -1.26089,3.01683c-0.38477,0.9128 -0.76954,1.8256 -1.16597,2.76606c-0.50783,1.20913 -0.50783,1.20913 -1.02591,2.44267c-0.85974,1.85699 -0.85974,1.85699 -1.95716,2.95441c-4.70162,0.33931 -9.41692,0.30554 -14.12927,0.34294c-1.32835,0.03183 -2.6567,0.06366 -4.0253,0.09645c-1.27177,0.0092 -2.54352,0.01839 -3.85383,0.02786c-1.17114,0.016 -2.34229,0.03201 -3.54892,0.04849c-2.97557,-0.51575 -2.97557,-0.51575 -5.0903,-2.48473c-1.17753,-2.4207 -1.17753,-2.4207 -0.20443,-6.50172c0.74483,-1.94297 1.523,-3.87324 2.31915,-5.79574c0.52147,-1.29298 1.04294,-2.58597 1.58022,-3.91813c1.9281,-4.74546 3.9111,-9.46736 5.89595,-14.18929c0.72697,-1.73581 1.45376,-3.4717 2.18037,-5.20765c1.88339,-4.49563 3.77231,-8.98891 5.66358,-13.48123c1.133,-2.69139 2.26484,-5.38325 3.39656,-8.07517c1.78628,-4.24709 3.57636,-8.49255 5.36984,-12.7366c0.67701,-1.60242 1.35327,-3.20514 2.0288,-4.80818c0.93743,-2.22299 1.87841,-4.44443 2.82054,-6.66543c0.53314,-1.26 1.06629,-2.52 1.61559,-3.81819c1.27371,-2.82205 1.27371,-2.82205 2.37113,-3.91946c1.79549,-0.10623 3.5955,-0.13735 5.39412,-0.13825c1.15023,-0.00417 2.30044,-0.00835 3.48551,-0.01265c1.25282,-0.00113 2.50564,-0.00226 3.79641,-0.00341c2.6271,-0.02012 5.25419,-0.04159 7.88127,-0.06431c4.16185,-0.03183 8.32305,-0.05573 12.48502,-0.05626c4.00312,-0.00364 8.00472,-0.04152 12.00757,-0.08519c1.24615,0.00775 2.4923,0.01551 3.77622,0.02351c6.75413,0.07206 6.75413,0.07206 12.2521,-3.38383c0.72996,-1.41773 0.72996,-1.41773 1.47466,-2.86411c0.78724,-1.31987 0.78724,-1.31987 1.5904,-2.66639c0.67266,-1.32835 0.67266,-1.32835 1.35891,-2.68353c0.68539,-1.31987 0.68539,-1.31987 1.38464,-2.66639c1.54809,-3.63907 1.54809,-3.63907 2.25056,-10.63982c-19.19386,-0.36215 -38.38772,-0.7243 -58.16321,-1.09742c2.16085,-6.48254 4.36801,-12.8918 6.79028,-19.27342c0.2992,-0.79291 0.59839,-1.58581 0.90665,-2.40274c0.72492,-1.92041 1.45213,-3.83996 2.17984,-5.75931z"/>
   <path style="--darkreader-inline-fill: var(--darkreader-background-5584ac, #436888);" transform="translate(672, 43)" fill="#5584AC" d="m-50.17214,-37.89857c12.67519,0 25.35038,0 38.40966,0c-6.16759,15.51756 -12.48868,30.96055 -18.93048,46.36595c-0.94995,2.2748 -1.89973,4.54966 -2.84938,6.82457c-1.4767,3.53749 -2.95353,7.07492 -4.43098,10.61209c-3.52704,8.44518 -7.04423,16.8944 -10.55698,25.34554c-1.46908,3.53266 -2.93827,7.06527 -4.40749,10.59788c-0.93191,2.24151 -1.86332,4.48323 -2.79418,6.72517c-1.30745,3.14852 -2.61696,6.29617 -3.92684,9.44367c-0.37077,0.89439 -0.74155,1.78877 -1.12356,2.71026c-3.66423,8.79484 -7.50437,17.51229 -11.33815,26.23416c-11.49512,0.0763 -22.99019,0.13478 -34.48551,0.17058c-5.33782,0.01717 -10.67546,0.04047 -16.01318,0.07779c-5.15167,0.03579 -10.30317,0.05546 -15.45495,0.06399c-1.96499,0.00608 -3.92998,0.01795 -5.89491,0.03573c-2.75338,0.02391 -5.50608,0.02719 -8.25956,0.02567c-0.81146,0.01183 -1.62293,0.02367 -2.45899,0.03586c-4.87087,-0.02918 -7.91823,-0.7397 -11.81094,-3.70188c-2.99358,-3.84889 -2.69333,-8.50961 -2.19484,-13.16903c1.01682,-3.55215 2.44934,-6.87515 3.93528,-10.25401c0.40928,-0.96506 0.81858,-1.93012 1.24027,-2.92444c1.32389,-3.11266 2.66929,-6.21551 4.01534,-9.31865c0.91097,-2.13042 1.82039,-4.26149 2.72827,-6.39321c1.78684,-4.19167 3.58086,-8.38012 5.38073,-12.5662c3.56205,-8.29958 6.99746,-16.65029 10.43084,-25.00379c0.58593,-1.41429 0.58593,-1.41429 1.1837,-2.85714c0.32828,-0.79733 0.65656,-1.59466 0.9948,-2.41614c0.81851,-1.79349 0.81851,-1.79349 1.91593,-2.89091c2.35461,-0.09631 4.71236,-0.11737 7.06893,-0.10717c1.43232,0.00354 2.86465,0.00708 4.34037,0.01072c1.52396,0.00917 3.04792,0.01846 4.57187,0.02786c1.52824,0.0055 3.05648,0.01051 4.58472,0.015c3.75314,0.01299 7.50618,0.03108 11.25927,0.05359c-0.74066,4.67001 -2.31889,8.82725 -4.13247,13.16474c-0.30209,0.73527 -0.60418,1.47053 -0.91542,2.22808c-0.96482,2.34718 -1.93598,4.69165 -2.90839,7.03568c-3.65175,8.81707 -7.28,17.63936 -10.6141,26.58241c-0.44242,1.18555 -0.88485,2.37112 -1.34068,3.5926c-1.23511,3.83955 -1.23511,3.83955 -0.93988,9.94938c14.12378,0.54322 14.12378,0.54322 28.53289,1.09742c0.36215,-1.81074 0.7243,-3.62148 1.09742,-5.48709c0.54275,-1.54208 1.13085,-3.06886 1.76,-4.57776c0.36134,-0.87368 0.72267,-1.74735 1.09496,-2.64751c0.3947,-0.94006 0.7894,-1.88013 1.19607,-2.84869c0.41384,-0.99714 0.82768,-1.99427 1.25406,-3.02163c1.35937,-3.27289 2.72554,-6.5429 4.09156,-9.81302c0.94475,-2.27203 1.88891,-4.54429 2.83249,-6.8168c1.44653,-3.4837 2.89335,-6.96727 4.34196,-10.45012c4.66446,-11.21636 9.27897,-22.45291 13.88227,-33.69447c1.36586,-3.33378 2.732,-6.66743 4.09817,-10.00109c0.31706,-0.77383 0.63411,-1.54767 0.96077,-2.34494c3.51556,-8.57804 7.04749,-17.14932 10.57928,-25.72069z"/>
   <path style="--darkreader-inline-fill: var(--darkreader-background-5584ac, #436888);" transform="translate(235.571, 42.4785)" fill="#5584AC" d="m-50.17214,-37.89857c2.80586,0.02361 5.60867,0.00009 8.41444,-0.02786c17.25397,-0.02806 17.25397,-0.02806 24.97914,4.98982c1.49386,0.9167 1.49386,0.9167 3.0179,1.85189c7.26622,7.46806 9.37877,15.63385 9.26001,25.7572c-0.30144,4.55676 -1.46378,8.44891 -3.01844,12.72105c-0.32396,0.9288 -0.64791,1.8576 -0.98167,2.81455c-1.26233,3.55607 -2.57106,7.09265 -3.88812,10.62883c-0.29484,0.7936 -0.58969,1.58719 -0.89346,2.40483c-2.41866,6.50201 -4.87125,12.99075 -7.33718,19.47496c-0.34731,0.91833 -0.69461,1.83665 -1.05245,2.7828c-12.26419,32.33033 -12.26419,32.33033 -24.7369,44.4748c-0.64791,0.68328 -1.29581,1.36655 -1.96335,2.07052c-9.97956,9.78172 -23.97128,15.63431 -37.76665,15.7111c-0.87423,0.00626 -1.74845,0.01251 -2.64917,0.01895c-1.8485,0.01035 -3.69703,0.01754 -5.54557,0.02177c-2.80589,0.01062 -5.61089,0.04468 -8.41658,0.0793c-1.80189,0.00718 -3.60376,0.01294 -5.40566,0.01715c-1.24363,0.02032 -1.24363,0.02032 -2.51239,0.04105c-7.75801,-0.03201 -15.05019,-1.97486 -20.91493,-7.40577c-6.06528,-7.0733 -8.03585,-14.49519 -7.57477,-23.72739c0.45822,-4.55828 1.81125,-8.70715 3.39943,-12.98469c0.29028,-0.80104 0.58056,-1.60208 0.87963,-2.42738c3.39608,-9.25482 7.16734,-18.35602 10.96478,-27.45157c0.71062,-1.71238 1.42081,-3.42496 2.13054,-5.13772c1.70736,-4.11996 3.42373,-8.23602 5.13986,-12.35239c8.32941,0 16.65882,0 25.24064,0c-1.94477,6.48256 -3.80802,12.60137 -6.21585,18.86189c-0.53499,1.41443 -1.0694,2.82908 -1.60326,4.24393c-0.82241,2.16903 -1.64867,4.33625 -2.48527,6.49985c-5.9177,14.21614 -5.9177,14.21614 -4.85372,29.03766c2.44745,3.46019 4.55031,5.75904 8.81846,6.56523c15.22862,0.98871 15.22862,0.98871 29.19708,-3.61726c3.00322,-2.93704 4.6864,-6.18424 6.48136,-9.92258c0.37378,-0.76379 0.74756,-1.52759 1.13267,-2.31452c4.7763,-9.95022 8.77462,-20.22514 12.80799,-30.49231c0.79594,-2.0072 1.59256,-4.01414 2.38988,-6.02079c1.4415,-3.63547 2.88141,-7.27155 4.31225,-10.91123c0.42451,-1.07932 0.42451,-1.07932 0.85761,-2.18045c2.08837,-5.49069 2.51737,-10.37547 1.8369,-16.2107c-2.33875,-4.00929 -4.54518,-5.93266 -8.77935,-7.68193c-2.50607,-0.31637 -2.50607,-0.31637 -5.15272,-0.25291c-1.44931,0.00318 -1.44931,0.00318 -2.92788,0.00643c-1.00015,0.01343 -2.00031,0.02688 -3.03076,0.04071c-1.51296,0.00106 -1.51296,0.00106 -3.05649,0.00215c-5.15961,-0.15211 -5.15961,-0.15211 -9.97536,1.30103c-2.64301,0.09482 -5.25372,0.12695 -7.89627,0.10717c-0.77637,-0.00155 -1.55273,-0.00311 -2.35261,-0.00471c-2.48238,-0.00615 -4.96465,-0.01992 -7.447,-0.03388c-1.68185,-0.0055 -3.3637,-0.0105 -5.04556,-0.015c-4.12536,-0.0121 -8.25065,-0.03106 -12.37597,-0.05359c6.30611,-11.51183 14.43894,-20.43257 26.33806,-26.33806c0.77116,-0.38584 1.54231,-0.77168 2.33683,-1.16922c9.14146,-3.97454 18.12893,-3.89078 27.91989,-3.79273z"/>
   <path style="--darkreader-inline-fill: var(--darkreader-background-5584ac, #436888);" transform="translate(317.433, 42.8528)" fill="#5584AC" d="m-50.17214,-37.89857c1.29397,-0.00786 2.58793,-0.0157 3.92111,-0.02379c1.4326,-0.00295 2.86521,-0.0059 4.34122,-0.00894c1.51396,-0.00687 3.02791,-0.01417 4.54187,-0.02185c4.12463,-0.01914 8.24924,-0.03069 12.3739,-0.03974c2.57641,-0.00564 5.15282,-0.01231 7.72923,-0.01922c8.05919,-0.02092 16.11836,-0.03653 24.17757,-0.04566c9.30573,-0.01072 18.61117,-0.03958 27.91681,-0.08395c7.18944,-0.03311 14.3788,-0.04935 21.56832,-0.05298c4.29508,-0.00258 8.58986,-0.01242 12.88486,-0.04001c4.04359,-0.02557 8.08666,-0.03019 12.13031,-0.01892c2.18739,0.0008 4.37474,-0.02015 6.56202,-0.04178c12.05667,0.07017 12.05667,0.07017 17.21132,4.94803c2.64441,4.36901 2.15934,7.19938 1.09742,12.07161c-1.03708,2.85296 -2.1177,5.62922 -3.29226,8.42355c-0.50582,1.22668 -0.50582,1.22668 -1.02187,2.47814c-1.11605,2.70189 -2.24187,5.3996 -3.3678,8.09738c-0.79214,1.91211 -1.58367,3.82446 -2.37461,5.73706c-1.65784,4.00543 -3.31982,8.00907 -4.98528,12.01133c-2.42559,5.82938 -4.84088,11.66298 -7.25379,17.49762c-3.47415,8.39786 -6.95654,16.79227 -10.44454,25.18438c-2.36402,5.68831 -4.72413,11.37822 -7.08119,17.06941c-1.53903,3.71475 -3.08035,7.42856 -4.62222,11.14213c-0.72853,1.75594 -1.45617,3.51225 -2.18284,5.26894c-0.99664,2.40877 -1.99664,4.81612 -2.99751,7.22315c-0.29512,0.71553 -0.59025,1.43106 -0.89431,2.16827c-2.03267,4.87404 -2.03267,4.87404 -3.25531,6.09667c-2.51475,0.09647 -5.03246,0.11736 -7.54904,0.10717c-1.13033,-0.00234 -1.13033,-0.00234 -2.28351,-0.00471c-2.41539,-0.00616 -4.83067,-0.01994 -7.24604,-0.03388c-1.63398,-0.0055 -3.26796,-0.01051 -4.90194,-0.015c-4.0132,-0.01213 -8.02631,-0.03108 -12.03947,-0.05359c2.38652,-9.32613 6.13357,-18.04768 9.91733,-26.86804c1.96362,-4.58011 3.90616,-9.16914 5.8495,-13.75789c0.4094,-0.9659 0.81881,-1.93182 1.24061,-2.92699c4.91657,-11.62269 9.69972,-23.29975 14.47477,-34.98112c0.41822,-1.02108 0.83643,-2.04217 1.26732,-3.09419c4.56819,-11.15572 9.0879,-22.32066 13.34207,-33.60075c-3.81599,-2.544 -5.31652,-2.46509 -9.81675,-2.44776c-1.27175,0.00213 -2.54352,0.00425 -3.85383,0.00643c-1.99252,0.02016 -1.99252,0.02016 -4.0253,0.04073c-1.33683,0.00071 -2.67366,0.00142 -4.05101,0.00214c-5.99152,-0.55258 -5.99152,-0.55258 -11.17568,1.30105c-2.59428,0.1106 -5.1558,0.15334 -7.75052,0.14575c-0.7753,0.00105 -1.55062,0.00211 -2.34942,0.00318c-1.64211,0.00075 -3.28422,-0.00128 -4.92634,-0.00586c-2.52178,-0.00587 -5.04334,-0.00005 -7.56511,0.00697c-1.59183,-0.00072 -3.18366,-0.00213 -4.7755,-0.00429c-1.13856,0.00334 -1.13856,0.00334 -2.30012,0.00674c-5.32424,-0.02634 -5.32424,-0.02634 -6.54782,-1.24991c-2.1011,-0.10943 -4.20621,-0.14354 -6.31016,-0.14575c-1.91824,-0.00213 -1.91824,-0.00213 -3.87526,-0.00429c-2.02011,0.00637 -2.02011,0.00637 -4.08103,0.01286c-1.34673,-0.00425 -2.69347,-0.00848 -4.08103,-0.01286c-1.27883,0.00142 -2.55767,0.00283 -3.87526,0.00429c-1.18263,0.00124 -2.36528,0.00247 -3.58375,0.00375c-2.66297,-0.16629 -2.66297,-0.16629 -3.82382,1.23941c-2.51475,0.09647 -5.03246,0.11736 -7.54904,0.10717c-1.13033,-0.00234 -1.13033,-0.00234 -2.28351,-0.00471c-2.41539,-0.00616 -4.83067,-0.01994 -7.24604,-0.03388c-1.63398,-0.0055 -3.26796,-0.01051 -4.90194,-0.015c-4.0132,-0.01213 -8.02631,-0.03108 -12.03947,-0.05359c5.86243,-15.325 5.86243,-15.325 8.505,-21.67402c0.67054,-1.62117 0.67054,-1.62117 1.35463,-3.2751c1.97304,-4.40141 3.49112,-3.72586 8.17403,-3.74527z"/>
   <path style="--darkreader-inline-fill: var(--darkreader-background-5584ac, #436888);" transform="translate(499, 43)" fill="#5584AC" d="m-50.17214,-37.89857c10.61755,-0.15273 21.23472,-0.26964 31.85311,-0.34115c4.93089,-0.03433 9.86102,-0.08088 14.79148,-0.15558c4.76037,-0.07166 9.52003,-0.11094 14.28091,-0.12798c1.81409,-0.01215 3.62813,-0.03586 5.44193,-0.07146c2.5462,-0.04798 5.08942,-0.05438 7.63601,-0.05133c1.44755,-0.01463 2.89509,-0.02925 4.38649,-0.04431c4.95928,1.00265 7.68129,3.19225 10.501,7.37633c0.16208,5.57252 -2.66242,11.044 -4.73691,16.17407c-0.36735,0.92077 -0.73471,1.84155 -1.11321,2.79022c-0.78001,1.95025 -1.56333,3.89917 -2.34971,5.84686c-1.17471,2.91244 -2.3365,5.82976 -3.49668,8.74801c-3.67349,9.18523 -7.47307,18.29223 -11.65794,27.25757c-0.34669,0.74705 -0.69336,1.49409 -1.05055,2.26378c-3.07252,6.46002 -6.71174,13.0304 -11.80983,18.12849c-1.71798,0.10236 -3.44055,0.1289 -5.16157,0.12459c-1.09847,-0.00009 -2.19695,-0.00018 -3.32871,-0.00025c-1.19457,-0.00566 -2.38914,-0.01134 -3.61991,-0.01716c-1.21636,-0.00156 -2.43273,-0.00311 -3.68596,-0.00471c-3.90266,-0.00617 -7.80526,-0.01995 -11.70791,-0.03388c-2.63852,-0.0055 -5.27704,-0.01051 -7.91556,-0.015c-6.4838,-0.01214 -12.96755,-0.03052 -19.45132,-0.05359c-0.20908,1.19596 -0.20908,1.19596 -0.42239,2.41608c-0.65051,2.95945 -1.53956,5.51513 -2.69626,8.31055c-0.41383,1.00672 -0.82765,2.01343 -1.25402,3.05066c-0.44698,1.07245 -0.89396,2.14491 -1.35449,3.24986c-0.45866,1.11012 -0.91731,2.22023 -1.38986,3.36398c-0.96809,2.34017 -1.93861,4.67933 -2.9114,7.01756c-1.49437,3.5931 -2.98038,7.18959 -4.46523,10.78664c-0.94118,2.2722 -1.88283,4.5442 -2.825,6.816c-0.44698,1.08133 -0.89397,2.16267 -1.35449,3.27678c-0.41383,0.99288 -0.82766,1.98576 -1.25402,3.00872c-0.36467,0.87781 -0.72934,1.75562 -1.10506,2.66002c-0.91617,2.01151 -0.91617,2.01151 -2.01359,3.10893c-4.49549,0.33932 -9.00526,0.30558 -13.51197,0.34294c-1.26682,0.03183 -2.53362,0.06366 -3.83883,0.09645c-1.21871,0.0092 -2.43742,0.01839 -3.69307,0.02786c-1.67914,0.02401 -1.67914,0.02401 -3.3922,0.04849c-3.73341,-0.64197 -5.0124,-2.03857 -7.38909,-4.90543c2.06895,-7.37088 4.54799,-14.403 7.54905,-21.44254c0.40463,-0.96196 0.80926,-1.92392 1.22616,-2.91502c1.29933,-3.08588 2.60637,-6.16842 3.9137,-9.2509c0.89497,-2.12084 1.78939,-4.24191 2.68327,-6.36321c1.3277,-3.15025 2.65591,-6.30028 3.98646,-9.44933c2.48355,-5.87813 4.95202,-11.76197 7.39095,-17.65874c0.51131,-1.23551 1.02261,-2.47103 1.54941,-3.74398c0.90996,-2.20307 1.81831,-4.40681 2.72479,-6.61131c0.58553,-1.41401 0.58553,-1.41401 1.18289,-2.8566c0.32828,-0.79733 0.65656,-1.59466 0.9948,-2.41614c0.81851,-1.79349 0.81851,-1.79349 1.91593,-2.89091c1.64997,-0.08877 3.30407,-0.10269 4.95634,-0.086c1.05525,0.00645 2.1105,0.01289 3.19773,0.01955c1.14991,0.0092 2.29982,0.0184 3.48458,0.02787c2.41704,-0.00407 4.83408,-0.01058 7.25111,-0.01928c3.82508,-0.01159 7.64791,-0.01079 11.4728,0.03134c3.68243,0.03637 7.36115,0.01703 11.04358,-0.01206c1.1388,0.02476 2.27761,0.0495 3.45092,0.07501c6.02833,-0.04 6.02833,-0.04 11.05655,-3.00232c1.71049,-2.2355 3.10696,-4.43671 4.44444,-6.91088c0.45301,-0.79013 0.90602,-1.58025 1.37276,-2.39433c2.81259,-4.98277 3.24094,-7.95321 4.11433,-14.06696c-18.10741,0 -36.21483,0 -54.87095,0c3.70379,-11.11137 3.70379,-11.11137 5.29419,-14.92233c0.33597,-0.80987 0.67195,-1.61976 1.01811,-2.45418c0.33881,-0.80705 0.67761,-1.61411 1.02669,-2.44562c0.35154,-0.84524 0.70307,-1.6905 1.06526,-2.56135c0.85356,-2.0511 1.71129,-4.10044 2.56994,-6.14941z"/>
   <path style="--darkreader-inline-fill: var(--darkreader-background-5584ac, #436888);" transform="translate(802, 92)" fill="#5584AC" d="m-50.17214,-37.89857c25.35038,0 50.70076,0 76.81933,0c-3.11473,9.34418 -7.02627,18.41166 -10.97419,27.43547c-14.84808,0.36215 -29.69616,0.7243 -44.99418,1.09742c-4.34578,10.5023 -8.69156,21.0046 -13.16903,31.82515c14.48593,0 28.97186,0 43.89676,0c-3.70379,12.34596 -3.70379,12.34596 -5.53425,16.36697c-0.38549,0.85587 -0.77098,1.71172 -1.16815,2.59351c-0.39115,0.8502 -0.7823,1.70041 -1.1853,2.57637c-0.60582,1.33896 -0.60582,1.33896 -1.22387,2.70496c-0.98052,2.16478 -1.96937,4.32577 -2.96004,6.48592c-9.38673,0.10165 -18.77324,0.17968 -28.16039,0.22744c-4.35874,0.02291 -8.7171,0.05401 -13.07562,0.10372c-4.20532,0.04765 -8.41027,0.07393 -12.61584,0.08532c-1.6054,0.00812 -3.2108,0.02397 -4.81605,0.04764c-2.24683,0.03181 -4.49217,0.03626 -6.7392,0.03422c-1.27939,0.00975 -2.55879,0.0195 -3.87695,0.02954c-3.14562,-0.52788 -3.14562,-0.52788 -5.26327,-2.58693c-1.17461,-2.33062 -1.17461,-2.33062 -0.65296,-5.00156c0.44323,-1.00997 0.88645,-2.01993 1.34311,-3.0605c0.5037,-1.18034 1.0074,-2.36068 1.52637,-3.57678c0.57849,-1.2967 1.157,-2.5934 1.75303,-3.92939c0.59308,-1.37167 1.18379,-2.74437 1.77232,-4.118c1.3199,-3.07571 2.65041,-6.14657 3.98591,-9.21553c2.53115,-5.84055 4.98639,-11.71219 7.43652,-17.5871c0.65993,-1.58237 0.65993,-1.58237 1.33321,-3.19669c0.88894,-2.1323 1.7777,-4.26467 2.66627,-6.39712c2.12901,-5.10517 4.26624,-10.2069 6.40457,-15.30817c0.37336,-0.89164 0.74673,-1.78329 1.13141,-2.70197c0.35314,-0.84252 0.70629,-1.68504 1.07013,-2.5531c0.30389,-0.72526 0.60777,-1.45051 0.92088,-2.19776c1.43707,-3.39976 2.89551,-6.79047 4.34947,-10.18304z"/>
   <path style="--darkreader-inline-fill: var(--darkreader-background-5584ac, #436888);" transform="translate(87.5002, 91.8865)" fill="#5584AC" d="m-50.17214,-37.89857c1.18962,0.00575 2.37925,0.01149 3.60492,0.01742c1.28379,0.00353 2.56758,0.00707 3.89026,0.01071c1.35169,0.0092 2.70338,0.01839 4.09604,0.02787c2.0339,0.00742 2.0339,0.00742 4.10889,0.015c3.36304,0.01298 6.72597,0.03107 10.08897,0.05359c-0.74931,5.02419 -2.62068,9.4538 -4.61259,14.08639c-0.72164,1.70756 -1.44325,3.41513 -2.16483,5.12272c-1.12971,2.65592 -2.26147,5.31094 -3.3946,7.9654c-8.69488,17.70037 -8.69488,17.70037 -12.87377,36.47579c15.57238,0.36215 31.14475,0.7243 47.18902,1.09742c-1.23499,8.64491 -1.23499,8.64491 -3.08649,12.2345c-0.38762,0.7625 -0.77523,1.52498 -1.17459,2.31058c-0.40459,0.76815 -0.80917,1.5363 -1.22601,2.32774c-0.4046,0.79361 -0.80918,1.58722 -1.22603,2.40488c-2.9614,5.76067 -2.9614,5.76067 -4.26107,7.06035c-2.1765,0.12051 -4.35731,0.16364 -6.53709,0.17683c-1.39899,0.01055 -2.79798,0.02108 -4.23935,0.03195c-1.53914,0.00532 -3.07828,0.01002 -4.61743,0.01413c-1.56785,0.00631 -3.13571,0.01263 -4.70356,0.01895c-3.29079,0.01154 -6.58154,0.01795 -9.87234,0.02177c-4.22323,0.00602 -8.44608,0.0324 -12.66919,0.06362c-3.23948,0.02041 -6.47885,0.02615 -9.71839,0.02784c-1.55727,0.00333 -3.11454,0.01216 -4.67175,0.02654c-2.17547,0.01865 -4.35109,0.01465 -6.52663,0.00954c-1.23953,0.00401 -2.47906,0.008 -3.75616,0.01213c-0.96457,-0.13308 -1.92914,-0.26618 -2.92293,-0.40329c-3.4251,-5.13764 -2.87599,-10.71498 -1.73133,-16.68313c0.6869,-2.48345 1.48781,-4.89419 2.34863,-7.32291c0.32236,-0.94065 0.64472,-1.88131 0.97685,-2.85046c5.46506,-15.43951 12.08239,-30.48058 18.48626,-45.54798c2.15306,-5.07225 4.2485,-10.16758 6.33213,-15.26875c1.49529,-3.38417 1.49529,-3.38417 4.86417,-3.53714z"/>
   <path style="--darkreader-inline-fill: var(--darkreader-background-5584ac, #436888);" transform="translate(294.959, 91.8865)" fill="#5584AC" d="m-50.17214,-37.89857c1.4195,0.00575 2.83901,0.01149 4.30153,0.01742c1.13033,0.00233 1.13033,0.00233 2.2835,0.00471c2.4154,0.00616 4.83068,0.01994 7.24604,0.03388c1.63398,0.0055 3.26796,0.0105 4.90195,0.015c4.01318,0.01212 8.02631,0.03108 12.03945,0.05359c-4.19011,11.79063 -8.98759,23.255 -14.00546,34.71515c-6.21139,14.19092 -12.17643,28.47863 -18.08092,42.7997c-0.51168,1.2369 -0.51168,1.2369 -1.0337,2.49879c-0.64319,1.5549 -1.28409,3.11075 -1.92239,4.66767c-2.14613,5.1834 -2.14613,5.1834 -3.36719,6.40446c-2.43468,0.09639 -4.87241,0.11736 -7.30898,0.10716c-1.0938,-0.00233 -1.0938,-0.00233 -2.2097,-0.00471c-2.33712,-0.00616 -4.67412,-0.01993 -7.0112,-0.03387c-1.58111,-0.00551 -3.16222,-0.01051 -4.74333,-0.01501c-3.88316,-0.01212 -7.76625,-0.03108 -11.64937,-0.05358c0.65109,-3.70208 1.57274,-6.9776 3.02781,-10.44049c0.39727,-0.95249 0.79452,-1.905 1.20382,-2.88637c0.64904,-1.53456 0.64904,-1.53456 1.31119,-3.10013c0.45056,-1.07677 0.90111,-2.15352 1.36531,-3.26291c1.46498,-3.49836 2.93691,-6.99375 4.409,-10.48912c1.00336,-2.39191 2.0062,-4.78402 3.00853,-7.17636c1.49866,-3.57689 2.99764,-7.15365 4.49856,-10.7296c2.87795,-6.85856 5.73848,-13.72378 8.56838,-20.60231c0.3125,-0.75914 0.62499,-1.51828 0.94696,-2.30043c1.4064,-3.41861 2.80946,-6.83854 4.20925,-10.25987c0.47841,-1.16284 0.95682,-2.32567 1.44973,-3.52375c0.40626,-0.99229 0.81254,-1.98456 1.23112,-3.00692c1.46375,-3.28378 1.46375,-3.28378 5.33009,-3.43211z"/>
   <path style="--darkreader-inline-fill: var(--darkreader-background-5584ac, #436888);" transform="translate(352, 92)" fill="#5584AC" d="m-50.17214,-37.89857c10.86445,0 21.7289,0 32.92257,0c-0.77158,4.62948 -1.27075,7.49096 -3.02781,11.56175c-0.39727,0.93046 -0.79452,1.8609 -1.20382,2.81955c-0.43269,0.99337 -0.86538,1.98675 -1.31119,3.01022c-0.45056,1.05079 -0.9011,2.10159 -1.36531,3.18423c-1.46325,3.40966 -2.93614,6.81506 -4.409,10.22057c-2.00646,4.66699 -4.00815,9.33602 -6.01008,14.00495c-0.74102,1.72532 -0.74102,1.72532 -1.49701,3.4855c-4.68602,10.92327 -9.23662,21.89946 -13.72459,32.90535c-0.47842,1.1684 -0.95683,2.33681 -1.44975,3.54062c-0.40626,0.99927 -0.81253,1.99853 -1.23111,3.02808c-0.98516,2.22753 -0.98516,2.22753 -2.08258,3.32495c-2.51475,0.09647 -5.03247,0.11736 -7.54905,0.10717c-1.13033,-0.00234 -1.13033,-0.00234 -2.2835,-0.00471c-2.4154,-0.00617 -4.83067,-0.01994 -7.24604,-0.03388c-1.63398,-0.0055 -3.26796,-0.01051 -4.90195,-0.015c-4.01318,-0.01213 -8.02631,-0.03108 -12.03945,-0.05359c6.3852,-16.24636 13.12364,-32.32977 19.98449,-48.38047c1.70457,-3.98788 3.40563,-7.97724 5.1061,-11.96685c1.09579,-2.5686 2.19178,-5.1371 3.28797,-7.70552c0.50192,-1.17642 1.00383,-2.35284 1.52095,-3.56492c0.47666,-1.11485 0.95334,-2.2297 1.44444,-3.37834c0.61825,-1.44694 0.61825,-1.44694 1.24901,-2.92311c1.90938,-4.40178 3.86803,-8.78204 5.8167,-13.16657z"/>
   <path style="--darkreader-inline-fill: var(--darkreader-background-5584ac, #436888);" transform="translate(724.776, 91.8865)" fill="#5584AC" d="m-50.17214,-37.89857c1.32755,0.00575 2.65511,0.01149 4.02289,0.01742c1.43233,0.00353 2.86465,0.00707 4.34038,0.01071c1.52395,0.00917 3.04791,0.01847 4.57187,0.02787c1.52823,0.0055 3.05648,0.0105 4.58472,0.015c3.75313,0.01298 7.50617,0.03108 11.25927,0.05359c-2.25106,7.07991 -4.86093,13.94558 -7.71195,20.8038c-0.42309,1.02478 -0.84618,2.04956 -1.28208,3.10539c-1.36519,3.30319 -2.73555,6.60419 -4.10641,9.90503c-0.94004,2.27 -1.88001,4.54003 -2.81991,6.8101c-6.99797,16.8795 -14.13713,33.69065 -21.3919,50.46145c-10.5023,0 -21.0046,0 -31.82515,0c0.77548,-3.87742 1.44279,-6.67412 2.90965,-10.20417c0.37179,-0.90158 0.7436,-1.80316 1.12665,-2.73205c0.4052,-0.96806 0.8104,-1.9361 1.22787,-2.93349c0.42314,-1.02194 0.84629,-2.04389 1.28226,-3.0968c1.37952,-3.32804 2.76626,-6.65304 4.1534,-9.97792c0.94826,-2.28214 1.89618,-4.56441 2.84374,-6.84682c2.35677,-5.6728 4.71989,-11.34293 7.08513,-17.0122c1.59772,-3.83179 3.19129,-7.6653 4.78459,-11.49892c1.32709,-3.19129 2.65699,-6.38141 3.98833,-9.57094c0.60824,-1.45754 1.21582,-2.91535 1.82269,-4.37346c0.82908,-1.99026 1.66221,-3.97882 2.49559,-5.96729c0.45923,-1.0982 0.91845,-2.19641 1.39159,-3.32789c1.58692,-3.51873 1.58692,-3.51873 5.24677,-3.66842z"/>
   <path style="--darkreader-inline-fill: var(--darkreader-background-5584ac, #436888);" transform="translate(716, 43)" fill="#5584AC" d="m-50.17214,-37.89857c28.24756,0 56.49513,0 85.59868,0c-8.77935,21.94838 -8.77935,21.94838 -12.07161,27.43547c-2.90877,0.5388 -5.12195,0.69762 -8.02997,0.62293c-0.81397,0.0008 -1.62793,0.0016 -2.46656,0.00243c-2.69067,-0.00382 -5.37926,-0.04651 -8.06957,-0.08951c-1.86522,-0.01023 -3.73045,-0.01804 -5.59568,-0.02353c-4.90946,-0.02095 -9.81803,-0.07485 -14.72713,-0.13555c-5.00928,-0.05612 -10.01871,-0.08119 -15.02822,-0.10884c-9.8293,-0.05884 -19.65792,-0.1525 -29.4867,-0.26792c1.90619,-9.53096 6.26695,-18.41095 9.87677,-27.43547z"/>
   <path style="--darkreader-inline-fill: var(--darkreader-background-5584ac, #436888);" transform="translate(822, 43)" fill="#5584AC" d="m-50.17214,-37.89857c25.35038,0 50.70076,0 76.81933,0c-2.10535,6.31607 -4.23596,12.49801 -6.72169,18.65612c-0.29,0.73137 -0.58001,1.46274 -0.87879,2.21627c-2.1371,5.32648 -2.1371,5.32648 -3.37371,6.56308c-2.35664,0.10344 -4.71672,0.12887 -7.07562,0.12459c-1.10807,0.00023 -1.10807,0.00023 -2.23855,0.00048c-2.45242,-0.00077 -4.90476,-0.00932 -7.35717,-0.0179c-1.69613,-0.00205 -3.39226,-0.00361 -5.0884,-0.00471c-4.47249,-0.0042 -8.94494,-0.01499 -13.41741,-0.02712c-4.56052,-0.0112 -9.12104,-0.01623 -13.68157,-0.02176c-8.95442,-0.01179 -17.9088,-0.03053 -26.86319,-0.05359c1.90619,-9.53096 6.26695,-18.41095 9.87677,-27.43547z"/>
   <path style="--darkreader-inline-fill: var(--darkreader-background-5584ac, #436888);" transform="translate(115.643, 42.8865)" fill="#5584AC" d="m-50.17214,-37.89857c1.29613,0.00009 2.59227,0.00016 3.92767,0.00025c1.40495,0.00566 2.8099,0.01133 4.25743,0.01716c1.43403,0.00155 2.86807,0.00311 4.34556,0.00471c3.81397,0.00419 7.62788,0.01497 11.44182,0.02711c3.89126,0.01123 7.78253,0.01624 11.67381,0.02177c7.63623,0.01176 15.27243,0.0305 22.90862,0.05359c2.25355,5.19951 2.25355,5.19951 1.72518,7.78776c-0.34438,0.73888 -0.68876,1.47777 -1.04357,2.23904c-0.37842,0.81413 -0.75683,1.62826 -1.14672,2.46705c-0.61856,1.25089 -0.61856,1.25089 -1.24961,2.52707c-0.38266,0.84666 -0.76532,1.69332 -1.15958,2.56564c-2.9244,6.09918 -2.9244,6.09918 -6.03848,7.91207c-4.15707,1.10467 -8.08163,0.99357 -12.33685,0.81369c-0.86913,-0.02747 -1.73827,-0.05493 -2.63375,-0.08323c-2.76207,-0.08981 -5.52323,-0.19596 -8.28471,-0.30258c-1.87829,-0.06396 -3.75662,-0.12684 -5.63498,-0.18862c-4.59239,-0.15338 -9.18404,-0.3214 -13.77562,-0.49726c0,0.7243 0,1.44859 0,2.19484c-9.778,0 -19.55601,0 -29.63031,0c1.33543,-3.53095 2.67084,-7.06189 4.04673,-10.69984c0.40839,-1.1059 0.81679,-2.21179 1.23755,-3.35121c3.47023,-8.9114 7.49611,-13.53002 17.36982,-13.50902z"/>
   <path style="--darkreader-inline-fill: var(--darkreader-background-5584ac, #436888);" transform="translate(613, 43)" fill="#5584AC" d="m-50.17214,-37.89857c10.86445,0 21.7289,0 32.92257,0c-1.60704,4.32315 -3.21407,8.64629 -4.8698,13.10044c-0.50565,1.36504 -1.01129,2.73008 -1.53226,4.13649c-0.39831,1.06672 -0.79662,2.13345 -1.207,3.2325c-0.40804,1.09768 -0.81607,2.19535 -1.23647,3.32629c-1.03124,2.54234 -1.03124,2.54234 -2.12866,3.63975c-2.35461,0.09631 -4.71236,0.11737 -7.06893,0.10717c-1.43232,-0.00354 -2.86465,-0.00708 -4.34037,-0.01072c-1.52396,-0.00917 -3.04792,-0.01846 -4.57187,-0.02786c-1.52824,-0.0055 -3.05648,-0.01051 -4.58472,-0.015c-3.75314,-0.01299 -7.50618,-0.03108 -11.25927,-0.05359c0.66981,-3.82534 1.66377,-7.22891 3.12508,-10.82415c0.35374,-0.87752 0.7075,-1.75504 1.07196,-2.65916c0.44836,-1.0959 0.89671,-2.19181 1.35865,-3.32092c1.42595,-3.50832 2.85192,-7.01662 4.32109,-10.63125z"/>
  </g>
 </g>
</svg>