<svg xmlns="http://www.w3.org/2000/svg" width="304" height="86" viewBox="0 0 304 86" version="1.1"><path d="" stroke="none" fill="#5485ae" fill-rule="evenodd"/><path d="" stroke="none" fill="#5486ae" fill-rule="evenodd"/><path d="M 32.695 6.750 C 31.254 10.463, 29.778 14.304, 29.416 15.288 C 28.807 16.939, 29.500 17.053, 38.494 16.788 L 48.230 16.500 51.063 9.500 C 52.621 5.650, 53.919 1.938, 53.948 1.250 C 53.986 0.335, 51.493 0, 44.658 0 L 35.316 0 32.695 6.750 M 74.250 7.764 C 72.463 12.019, 71 15.896, 71 16.378 C 71 16.876, 79.220 16.940, 90 16.526 C 108.098 15.831, 108.998 15.885, 108.952 17.648 C 108.925 18.667, 102.692 34.350, 95.100 52.500 L 81.296 85.500 91.779 85.785 C 97.545 85.942, 102.467 85.867, 102.716 85.618 C 104.096 84.237, 135 8.409, 135 6.402 C 135 5.081, 134.100 3.100, 133 2 C 131.099 0.099, 129.676 0.001, 104.250 0.013 L 77.500 0.026 74.250 7.764 M 156.695 6.750 C 155.254 10.463, 153.778 14.304, 153.416 15.288 C 152.807 16.939, 153.500 17.053, 162.506 16.788 L 172.256 16.500 175.128 9.016 C 176.708 4.900, 178 1.188, 178 0.766 C 178 0.345, 173.796 0, 168.658 0 L 159.316 0 156.695 6.750 M 184.077 2.250 C 183.597 3.488, 182.258 6.879, 181.102 9.787 C 179.946 12.695, 179 15.507, 179 16.037 C 179 16.628, 188.562 17, 203.781 17 L 228.562 17 232.186 8.500 L 235.810 -0 210.380 -0 L 184.950 0 184.077 2.250 M 252.250 7.691 C 250.463 11.987, 249 15.838, 249 16.250 C 249 16.663, 255.490 17, 263.423 17 C 277.459 17, 277.929 17.069, 280.905 19.574 C 282.587 20.989, 284.480 23.869, 285.110 25.972 C 288.750 38.123, 277.423 60.744, 264.587 66.958 C 261.462 68.471, 258.377 69, 252.684 69 C 248.458 69, 245 68.662, 245 68.250 C 245.001 67.838, 247.967 60.525, 251.593 52 C 255.218 43.475, 258.582 35.487, 259.067 34.250 C 259.942 32.021, 259.869 32, 251.204 32 L 242.457 32 231.773 57.250 C 225.897 71.138, 220.796 83.287, 220.438 84.250 C 219.829 85.884, 221.267 85.999, 242.143 85.990 C 263.492 85.981, 264.725 85.875, 269.500 83.637 C 280.639 78.416, 290.513 67.716, 296.947 53.893 C 301.108 44.955, 303 36.850, 303 27.968 C 303 18.578, 300.963 12.298, 296.389 7.589 C 290.096 1.109, 288.196 0.556, 271 0.201 L 255.500 -0.119 252.250 7.691 M 11.773 57.250 C 5.897 71.138, 0.796 83.287, 0.438 84.250 C -0.154 85.839, 0.655 86, 9.253 86 L 18.721 86 29.378 60.537 C 35.239 46.533, 40.300 34.383, 40.624 33.537 C 41.129 32.222, 39.862 32, 31.835 32 L 22.457 32 11.773 57.250 M 54.529 55.750 C 49.098 68.813, 44.051 80.963, 43.314 82.750 L 41.973 86 52.344 86 L 62.715 86 72.532 62.250 C 77.931 49.188, 82.951 37.038, 83.688 35.250 L 85.027 32 74.716 32 L 64.404 32 54.529 55.750 M 135.757 57.250 C 129.886 71.138, 124.790 83.287, 124.434 84.250 C 123.846 85.839, 124.656 86, 133.237 86 L 142.688 86 153.465 60.250 C 159.393 46.087, 164.461 33.938, 164.728 33.250 C 165.096 32.304, 162.928 32, 155.823 32 L 146.433 32 135.757 57.250 M 177.451 58.180 C 171.428 72.578, 166.344 84.745, 166.154 85.217 C 165.964 85.689, 170.204 85.945, 175.577 85.787 L 185.346 85.500 192.752 68 C 196.826 58.375, 201.902 46.337, 204.031 41.250 L 207.903 32 198.153 32 L 188.402 32 177.451 58.180" stroke="none" fill="#5484ac" fill-rule="evenodd"/></svg>
